<svg width="24" height="24" viewBox="0 0 24 24" fill="none" xmlns="http://www.w3.org/2000/svg">
<path d="M22 8.11564V12.1156M10.25 5.61563H6.8C5.11984 5.61563 4.27976 5.61563 3.63803 5.94261C3.07354 6.23024 2.6146 6.68918 2.32698 7.25366C2 7.8954 2 8.73548 2 10.4156L2 11.6156C2 12.5475 2 13.0135 2.15224 13.381C2.35523 13.8711 2.74458 14.2604 3.23463 14.4634C3.60218 14.6156 4.06812 14.6156 5 14.6156V18.8656C5 19.0978 5 19.2139 5.00963 19.3117C5.10316 20.2612 5.85441 21.0125 6.80397 21.106C6.90175 21.1156 7.01783 21.1156 7.25 21.1156C7.48217 21.1156 7.59826 21.1156 7.69604 21.106C8.64559 21.0125 9.39685 20.2612 9.49037 19.3117C9.5 19.2139 9.5 19.0978 9.5 18.8656V14.6156H10.25C12.0164 14.6156 14.1772 15.5625 15.8443 16.4713C16.8168 17.0014 17.3031 17.2665 17.6216 17.2275C17.9169 17.1913 18.1402 17.0587 18.3133 16.8167C18.5 16.5558 18.5 16.0336 18.5 14.9893V5.24192C18.5 4.19763 18.5 3.67548 18.3133 3.41452C18.1402 3.17254 17.9169 3.03993 17.6216 3.00376C17.3031 2.96476 16.8168 3.22983 15.8443 3.75999C14.1772 4.66875 12.0164 5.61563 10.25 5.61563Z" stroke="white" stroke-width="1.3" stroke-linecap="round" stroke-linejoin="round"/>
</svg>
