<svg width="13" height="19" viewBox="0 0 13 19" fill="none" xmlns="http://www.w3.org/2000/svg">
<path d="M6.4 10.7C6.2 10.7 6 10.5 6 10.3V0.400001C6 0.200001 6.2 0 6.4 0C6.6 0 6.8 0.200001 6.8 0.400001V10.3C6.8 10.6 6.6 10.7 6.4 10.7Z" fill="white"/>
<path d="M9.9 4.2C9.8 4.2 9.7 4.2 9.6 4.1L6.4 0.900001L3.2 4.1C3.1 4.2 2.8 4.2 2.7 4.1C2.6 4 2.6 3.7 2.7 3.6L6.1 0.2C6.2 0.1 6.5 0.1 6.6 0.2L10 3.6C10.1 3.7 10.1 4 10 4.1C10.1 4.2 10 4.2 9.9 4.2Z" fill="white"/>
<path d="M11.8 18.4H1.1C0.5 18.4 0 17.9 0 17.3V7.39999C0 6.79999 0.5 6.29999 1.1 6.29999H4.2C4.4 6.29999 4.6 6.49999 4.6 6.69999C4.6 6.89999 4.4 7.09999 4.2 7.09999H1.1C0.9 7.09999 0.700001 7.29999 0.700001 7.49999V17.4C0.700001 17.6 0.9 17.8 1.1 17.8H11.8C12 17.8 12.2 17.6 12.2 17.4V7.49999C12.2 7.29999 12 7.09999 11.8 7.09999H8.7C8.5 7.09999 8.3 6.89999 8.3 6.69999C8.3 6.49999 8.5 6.29999 8.7 6.29999H11.8C12.4 6.29999 12.9 6.79999 12.9 7.39999V17.3C12.9 17.9 12.4 18.4 11.8 18.4Z" fill="white"/>
</svg>
