<svg width="36" height="34" viewBox="0 0 36 34" fill="none" xmlns="http://www.w3.org/2000/svg">
<path d="M18 19.1C19.1598 19.1 20.1 18.1598 20.1 17C20.1 15.8402 19.1598 14.9 18 14.9C16.8402 14.9 15.9 15.8402 15.9 17C15.9 18.1598 16.8402 19.1 18 19.1Z" stroke="white" stroke-width="1.3" stroke-linecap="round" stroke-linejoin="round"/>
<path d="M22.7091 18.9091C22.6244 19.101 22.5991 19.3139 22.6365 19.5204C22.674 19.7268 22.7724 19.9173 22.9191 20.0673L22.9573 20.1055C23.0756 20.2237 23.1695 20.364 23.2335 20.5185C23.2976 20.673 23.3305 20.8387 23.3305 21.0059C23.3305 21.1732 23.2976 21.3388 23.2335 21.4933C23.1695 21.6478 23.0756 21.7882 22.9573 21.9064C22.8391 22.0247 22.6987 22.1186 22.5442 22.1826C22.3897 22.2467 22.2241 22.2796 22.0568 22.2796C21.8896 22.2796 21.7239 22.2467 21.5694 22.1826C21.4149 22.1186 21.2746 22.0247 21.1564 21.9064L21.1182 21.8682C20.9682 21.7215 20.7777 21.6231 20.5713 21.5856C20.3649 21.5482 20.1519 21.5735 19.96 21.6582C19.7718 21.7388 19.6113 21.8728 19.4982 22.0435C19.3851 22.2143 19.3245 22.4143 19.3236 22.6191V22.7273C19.3236 23.0648 19.1895 23.3885 18.9509 23.6272C18.7122 23.8659 18.3885 24 18.0509 24C17.7134 24 17.3896 23.8659 17.151 23.6272C16.9123 23.3885 16.7782 23.0648 16.7782 22.7273V22.67C16.7733 22.4594 16.7051 22.2551 16.5825 22.0837C16.4599 21.9123 16.2886 21.7818 16.0909 21.7091C15.899 21.6244 15.6861 21.5991 15.4796 21.6365C15.2732 21.674 15.0827 21.7724 14.9327 21.9191L14.8945 21.9573C14.7763 22.0756 14.636 22.1695 14.4815 22.2335C14.327 22.2976 14.1613 22.3305 13.9941 22.3305C13.8268 22.3305 13.6612 22.2976 13.5067 22.2335C13.3522 22.1695 13.2118 22.0756 13.0936 21.9573C12.9753 21.8391 12.8814 21.6987 12.8174 21.5442C12.7533 21.3897 12.7204 21.2241 12.7204 21.0568C12.7204 20.8896 12.7533 20.7239 12.8174 20.5694C12.8814 20.4149 12.9753 20.2746 13.0936 20.1564L13.1318 20.1182C13.2785 19.9682 13.3769 19.7777 13.4144 19.5713C13.4518 19.3649 13.4265 19.1519 13.3418 18.96C13.2612 18.7718 13.1272 18.6113 12.9565 18.4982C12.7857 18.3851 12.5857 18.3245 12.3809 18.3236H12.2727C11.9352 18.3236 11.6115 18.1895 11.3728 17.9509C11.1341 17.7122 11 17.3885 11 17.0509C11 16.7134 11.1341 16.3896 11.3728 16.151C11.6115 15.9123 11.9352 15.7782 12.2727 15.7782H12.33C12.5406 15.7733 12.7449 15.7051 12.9163 15.5825C13.0877 15.4599 13.2182 15.2886 13.2909 15.0909C13.3756 14.899 13.4009 14.6861 13.3635 14.4796C13.326 14.2732 13.2276 14.0827 13.0809 13.9327L13.0427 13.8945C12.9244 13.7763 12.8305 13.636 12.7665 13.4815C12.7024 13.327 12.6695 13.1613 12.6695 12.9941C12.6695 12.8268 12.7024 12.6612 12.7665 12.5067C12.8305 12.3522 12.9244 12.2118 13.0427 12.0936C13.1609 11.9753 13.3013 11.8814 13.4558 11.8174C13.6103 11.7533 13.7759 11.7204 13.9432 11.7204C14.1104 11.7204 14.2761 11.7533 14.4306 11.8174C14.5851 11.8814 14.7254 11.9753 14.8436 12.0936L14.8818 12.1318C15.0318 12.2785 15.2223 12.3769 15.4287 12.4144C15.6351 12.4518 15.8481 12.4265 16.04 12.3418H16.0909C16.2791 12.2612 16.4396 12.1272 16.5527 11.9565C16.6658 11.7857 16.7265 11.5857 16.7273 11.3809V11.2727C16.7273 10.9352 16.8614 10.6115 17.1 10.3728C17.3387 10.1341 17.6625 10 18 10C18.3375 10 18.6613 10.1341 18.9 10.3728C19.1386 10.6115 19.2727 10.9352 19.2727 11.2727V11.33C19.2735 11.5348 19.3342 11.7348 19.4473 11.9056C19.5604 12.0763 19.7209 12.2102 19.9091 12.2909C20.101 12.3756 20.3139 12.4009 20.5204 12.3635C20.7268 12.326 20.9173 12.2276 21.0673 12.0809L21.1055 12.0427C21.2237 11.9244 21.364 11.8305 21.5185 11.7665C21.673 11.7024 21.8387 11.6695 22.0059 11.6695C22.1732 11.6695 22.3388 11.7024 22.4933 11.7665C22.6478 11.8305 22.7882 11.9244 22.9064 12.0427C23.0247 12.1609 23.1186 12.3013 23.1826 12.4558C23.2467 12.6103 23.2796 12.7759 23.2796 12.9432C23.2796 13.1104 23.2467 13.2761 23.1826 13.4306C23.1186 13.5851 23.0247 13.7254 22.9064 13.8436L22.8682 13.8818C22.7215 14.0318 22.6231 14.2223 22.5856 14.4287C22.5482 14.6351 22.5735 14.8481 22.6582 15.04V15.0909C22.7388 15.2791 22.8728 15.4396 23.0435 15.5527C23.2143 15.6658 23.4143 15.7265 23.6191 15.7273H23.7273C24.0648 15.7273 24.3885 15.8614 24.6272 16.1C24.8659 16.3387 25 16.6625 25 17C25 17.3375 24.8659 17.6613 24.6272 17.9C24.3885 18.1386 24.0648 18.2727 23.7273 18.2727H23.67C23.4652 18.2735 23.2652 18.3342 23.0944 18.4473C22.9237 18.5604 22.7898 18.7209 22.7091 18.9091Z" stroke="white" stroke-width="1.3" stroke-linecap="round" stroke-linejoin="round"/>
</svg>
