<svg width="651" height="199" viewBox="0 0 651 199" fill="none" xmlns="http://www.w3.org/2000/svg">
<path d="M0.251051 3.72727H16.0508L37.2099 55.3722H38.0451L59.2042 3.72727H75.0039V75H62.6147V26.0348H61.9535L42.256 74.7912H32.9989L13.3015 25.9304H12.6403V75H0.251051V3.72727ZM84.5867 75V21.5455H97.1847V75H84.5867ZM90.9205 13.9588C88.9253 13.9588 87.2084 13.2976 85.77 11.9751C84.3315 10.6295 83.6123 9.01704 83.6123 7.13778C83.6123 5.23532 84.3315 3.62287 85.77 2.30042C87.2084 0.954779 88.9253 0.281958 90.9205 0.281958C92.939 0.281958 94.6559 0.954779 96.0711 2.30042C97.5096 3.62287 98.2288 5.23532 98.2288 7.13778C98.2288 9.01704 97.5096 10.6295 96.0711 11.9751C94.6559 13.2976 92.939 13.9588 90.9205 13.9588ZM148.468 35.6747L136.984 36.9276C136.659 35.7675 136.09 34.6771 135.278 33.6562C134.49 32.6354 133.422 31.8118 132.077 31.1854C130.731 30.5589 129.084 30.2457 127.135 30.2457C124.513 30.2457 122.309 30.8142 120.523 31.951C118.759 33.0878 117.889 34.5611 117.913 36.3707C117.889 37.9252 118.458 39.1896 119.618 40.1641C120.801 41.1385 122.75 41.9389 125.465 42.5653L134.582 44.5142C139.64 45.6046 143.399 47.3331 145.858 49.6996C148.34 52.0661 149.593 55.1634 149.616 58.9915C149.593 62.3556 148.607 65.3253 146.658 67.9006C144.733 70.4527 142.053 72.4479 138.619 73.8864C135.186 75.3248 131.241 76.044 126.787 76.044C120.244 76.044 114.978 74.6752 110.987 71.9375C106.997 69.1766 104.619 65.3369 103.853 60.4183L116.138 59.2351C116.695 61.648 117.878 63.4692 119.688 64.6989C121.497 65.9285 123.852 66.5433 126.752 66.5433C129.745 66.5433 132.146 65.9285 133.956 64.6989C135.789 63.4692 136.705 61.9496 136.705 60.1399C136.705 58.6087 136.114 57.3442 134.93 56.3466C133.77 55.349 131.961 54.5833 129.501 54.0497L120.384 52.1357C115.256 51.0684 111.463 49.2704 109.004 46.7415C106.544 44.1894 105.326 40.9645 105.349 37.0668C105.326 33.7723 106.219 30.9186 108.029 28.5057C109.862 26.0696 112.402 24.1903 115.651 22.8679C118.922 21.5223 122.692 20.8494 126.961 20.8494C133.225 20.8494 138.155 22.1835 141.751 24.8516C145.371 27.5196 147.61 31.1274 148.468 35.6747ZM198.333 35.6747L186.849 36.9276C186.524 35.7675 185.956 34.6771 185.144 33.6562C184.355 32.6354 183.288 31.8118 181.942 31.1854C180.596 30.5589 178.949 30.2457 177 30.2457C174.378 30.2457 172.174 30.8142 170.388 31.951C168.625 33.0878 167.755 34.5611 167.778 36.3707C167.755 37.9252 168.323 39.1896 169.483 40.1641C170.666 41.1385 172.615 41.9389 175.33 42.5653L184.448 44.5142C189.505 45.6046 193.264 47.3331 195.723 49.6996C198.206 52.0661 199.458 55.1634 199.482 58.9915C199.458 62.3556 198.472 65.3253 196.524 67.9006C194.598 70.4527 191.918 72.4479 188.484 73.8864C185.051 75.3248 181.107 76.044 176.652 76.044C170.109 76.044 164.843 74.6752 160.852 71.9375C156.862 69.1766 154.484 65.3369 153.718 60.4183L166.003 59.2351C166.56 61.648 167.743 63.4692 169.553 64.6989C171.362 65.9285 173.717 66.5433 176.617 66.5433C179.61 66.5433 182.011 65.9285 183.821 64.6989C185.654 63.4692 186.57 61.9496 186.57 60.1399C186.57 58.6087 185.979 57.3442 184.796 56.3466C183.636 55.349 181.826 54.5833 179.367 54.0497L170.249 52.1357C165.121 51.0684 161.328 49.2704 158.869 46.7415C156.409 44.1894 155.191 40.9645 155.215 37.0668C155.191 33.7723 156.085 30.9186 157.894 28.5057C159.727 26.0696 162.268 24.1903 165.516 22.8679C168.787 21.5223 172.557 20.8494 176.826 20.8494C183.09 20.8494 188.02 22.1835 191.617 24.8516C195.236 27.5196 197.475 31.1274 198.333 35.6747ZM205.95 75V21.5455H218.548V75H205.95ZM212.284 13.9588C210.288 13.9588 208.571 13.2976 207.133 11.9751C205.695 10.6295 204.975 9.01704 204.975 7.13778C204.975 5.23532 205.695 3.62287 207.133 2.30042C208.571 0.954779 210.288 0.281958 212.284 0.281958C214.302 0.281958 216.019 0.954779 217.434 2.30042C218.873 3.62287 219.592 5.23532 219.592 7.13778C219.592 9.01704 218.873 10.6295 217.434 11.9751C216.019 13.2976 214.302 13.9588 212.284 13.9588ZM240.181 43.679V75H227.583V21.5455H239.624V30.6285H240.25C241.48 27.6357 243.44 25.2576 246.132 23.4943C248.846 21.7311 252.199 20.8494 256.189 20.8494C259.878 20.8494 263.091 21.6383 265.829 23.2159C268.59 24.7936 270.724 27.0788 272.232 30.0717C273.764 33.0646 274.518 36.6955 274.494 40.9645V75H261.896V42.9134C261.896 39.3404 260.968 36.5447 259.112 34.5263C257.279 32.5078 254.739 31.4986 251.491 31.4986C249.287 31.4986 247.326 31.9858 245.609 32.9602C243.916 33.9115 242.582 35.2919 241.607 37.1016C240.656 38.9112 240.181 41.1037 240.181 43.679ZM306.628 96.1591C302.104 96.1591 298.218 95.5443 294.97 94.3146C291.722 93.1082 289.112 91.4841 287.14 89.4425C285.168 87.4008 283.799 85.1387 283.033 82.6562L294.378 79.907C294.889 80.951 295.631 81.9834 296.606 83.0043C297.58 84.0483 298.891 84.9067 300.538 85.5795C302.209 86.2756 304.308 86.6236 306.837 86.6236C310.41 86.6236 313.368 85.7536 315.712 84.0135C318.055 82.2966 319.226 79.4661 319.226 75.522V65.3949H318.6C317.95 66.6941 316.999 68.0282 315.746 69.397C314.517 70.7659 312.881 71.9143 310.839 72.8423C308.821 73.7704 306.28 74.2344 303.218 74.2344C299.111 74.2344 295.388 73.2715 292.047 71.3459C288.729 69.397 286.084 66.4969 284.112 62.6456C282.163 58.7711 281.189 53.9221 281.189 48.0987C281.189 42.2289 282.163 37.2756 284.112 33.2386C286.084 29.1785 288.741 26.1044 292.082 24.0163C295.422 21.9051 299.146 20.8494 303.253 20.8494C306.385 20.8494 308.96 21.383 310.979 22.4503C313.02 23.4943 314.644 24.7588 315.851 26.2436C317.057 27.7053 317.974 29.0857 318.6 30.3849H319.296V21.5455H331.72V75.87C331.72 80.4406 330.63 84.2223 328.449 87.2152C326.268 90.2081 323.287 92.447 319.505 93.9318C315.723 95.4167 311.431 96.1591 306.628 96.1591ZM306.733 64.3509C309.401 64.3509 311.675 63.7012 313.554 62.402C315.433 61.1027 316.86 59.2351 317.834 56.799C318.809 54.3629 319.296 51.4396 319.296 48.0291C319.296 44.665 318.809 41.7185 317.834 39.1896C316.883 36.6607 315.468 34.7003 313.589 33.3082C311.733 31.893 309.447 31.1854 306.733 31.1854C303.926 31.1854 301.582 31.9162 299.703 33.3778C297.824 34.8395 296.409 36.8464 295.457 39.3984C294.506 41.9273 294.03 44.8042 294.03 48.0291C294.03 51.3004 294.506 54.1657 295.457 56.625C296.432 59.0611 297.859 60.9635 299.738 62.3324C301.64 63.678 303.972 64.3509 306.733 64.3509ZM384.417 76.044C379.08 76.044 374.498 74.8724 370.67 72.5291C366.865 70.1858 363.93 66.9493 361.865 62.8196C359.824 58.6667 358.803 53.8873 358.803 48.4815C358.803 43.0526 359.847 38.2616 361.935 34.1087C364.023 29.9325 366.97 26.6844 370.775 24.3643C374.603 22.0211 379.127 20.8494 384.347 20.8494C388.686 20.8494 392.525 21.6499 395.866 23.2507C399.23 24.8284 401.91 27.0672 403.905 29.9673C405.901 32.8442 407.037 36.2083 407.316 40.0597H395.275C394.787 37.4844 393.627 35.3383 391.794 33.6214C389.985 31.8814 387.56 31.0114 384.521 31.0114C381.946 31.0114 379.684 31.7074 377.735 33.0994C375.786 34.4683 374.266 36.4403 373.176 39.0156C372.109 41.5909 371.575 44.6766 371.575 48.2727C371.575 51.9152 372.109 55.0473 373.176 57.669C374.243 60.2675 375.74 62.2744 377.665 63.6896C379.614 65.0817 381.899 65.7777 384.521 65.7777C386.377 65.7777 388.036 65.4297 389.498 64.7337C390.982 64.0144 392.224 62.982 393.221 61.6364C394.219 60.2907 394.903 58.6551 395.275 56.7294H407.316C407.014 60.5111 405.901 63.8636 403.975 66.7869C402.049 69.687 399.428 71.9607 396.11 73.608C392.792 75.232 388.894 76.044 384.417 76.044ZM437.057 76.044C431.837 76.044 427.313 74.8956 423.485 72.5987C419.657 70.3018 416.687 67.0885 414.576 62.9588C412.488 58.8291 411.444 54.0033 411.444 48.4815C411.444 42.9598 412.488 38.1224 414.576 33.9695C416.687 29.8165 419.657 26.5916 423.485 24.2947C427.313 21.9979 431.837 20.8494 437.057 20.8494C442.277 20.8494 446.801 21.9979 450.63 24.2947C454.458 26.5916 457.416 29.8165 459.504 33.9695C461.615 38.1224 462.671 42.9598 462.671 48.4815C462.671 54.0033 461.615 58.8291 459.504 62.9588C457.416 67.0885 454.458 70.3018 450.63 72.5987C446.801 74.8956 442.277 76.044 437.057 76.044ZM437.127 65.9517C439.957 65.9517 442.324 65.1745 444.226 63.62C446.129 62.0424 447.544 59.9311 448.472 57.2862C449.423 54.6413 449.899 51.6948 449.899 48.4467C449.899 45.1754 449.423 42.2173 448.472 39.5724C447.544 36.9044 446.129 34.7815 444.226 33.2038C442.324 31.6262 439.957 30.8374 437.127 30.8374C434.227 30.8374 431.814 31.6262 429.888 33.2038C427.986 34.7815 426.559 36.9044 425.608 39.5724C424.68 42.2173 424.216 45.1754 424.216 48.4467C424.216 51.6948 424.68 54.6413 425.608 57.2862C426.559 59.9311 427.986 62.0424 429.888 63.62C431.814 65.1745 434.227 65.9517 437.127 65.9517ZM515.372 21.5455L496.336 75H482.416L463.379 21.5455H476.813L489.097 61.2536H489.654L501.974 21.5455H515.372ZM542.016 76.044C536.657 76.044 532.028 74.9304 528.131 72.7031C524.256 70.4527 521.275 67.2741 519.187 63.1676C517.099 59.0379 516.055 54.1773 516.055 48.5859C516.055 43.0874 517.099 38.2616 519.187 34.1087C521.298 29.9325 524.245 26.6844 528.026 24.3643C531.808 22.0211 536.251 20.8494 541.355 20.8494C544.65 20.8494 547.759 21.383 550.682 22.4503C553.628 23.4943 556.227 25.1184 558.477 27.3224C560.751 29.5265 562.537 32.3338 563.837 35.7443C565.136 39.1316 565.786 43.1686 565.786 47.8551V51.718H521.971V43.2266H553.71C553.686 40.8137 553.164 38.6676 552.143 36.7884C551.123 34.8859 549.696 33.3894 547.863 32.299C546.053 31.2086 543.942 30.6634 541.529 30.6634C538.954 30.6634 536.692 31.2898 534.743 32.5426C532.794 33.7723 531.274 35.3963 530.184 37.4148C529.117 39.41 528.571 41.6025 528.548 43.9922V51.4048C528.548 54.5137 529.117 57.1818 530.254 59.4091C531.39 61.6132 532.98 63.3068 535.021 64.4901C537.063 65.6501 539.453 66.2301 542.19 66.2301C544.023 66.2301 545.682 65.9749 547.167 65.4645C548.652 64.9309 549.939 64.1536 551.03 63.1328C552.12 62.112 552.944 60.8475 553.501 59.3395L565.263 60.6619C564.521 63.7708 563.106 66.4853 561.018 68.8054C558.953 71.1023 556.308 72.8887 553.083 74.1648C549.858 75.4176 546.169 76.044 542.016 76.044ZM572.523 75V21.5455H584.739V30.4545H585.295C586.27 27.3688 587.94 24.9908 590.307 23.3203C592.696 21.6267 595.423 20.7798 598.485 20.7798C599.181 20.7798 599.958 20.8146 600.817 20.8842C601.698 20.9306 602.429 21.0118 603.009 21.1278V32.7166C602.476 32.531 601.629 32.3686 600.469 32.2294C599.332 32.067 598.23 31.9858 597.163 31.9858C594.866 31.9858 592.801 32.4846 590.968 33.4822C589.158 34.4567 587.732 35.8139 586.687 37.554C585.643 39.294 585.121 41.3009 585.121 43.5746V75H572.523ZM649.707 35.6747L638.223 36.9276C637.898 35.7675 637.33 34.6771 636.518 33.6562C635.729 32.6354 634.662 31.8118 633.316 31.1854C631.97 30.5589 630.323 30.2457 628.374 30.2457C625.753 30.2457 623.549 30.8142 621.762 31.951C619.999 33.0878 619.129 34.5611 619.152 36.3707C619.129 37.9252 619.697 39.1896 620.857 40.1641C622.041 41.1385 623.989 41.9389 626.704 42.5653L635.822 44.5142C640.88 45.6046 644.638 47.3331 647.097 49.6996C649.58 52.0661 650.833 55.1634 650.856 58.9915C650.833 62.3556 649.847 65.3253 647.898 67.9006C645.972 70.4527 643.292 72.4479 639.859 73.8864C636.425 75.3248 632.481 76.044 628.026 76.044C621.484 76.044 616.217 74.6752 612.227 71.9375C608.236 69.1766 605.858 65.3369 605.092 60.4183L617.377 59.2351C617.934 61.648 619.117 63.4692 620.927 64.6989C622.737 65.9285 625.091 66.5433 627.992 66.5433C630.984 66.5433 633.386 65.9285 635.195 64.6989C637.028 63.4692 637.945 61.9496 637.945 60.1399C637.945 58.6087 637.353 57.3442 636.17 56.3466C635.01 55.349 633.2 54.5833 630.741 54.0497L621.623 52.1357C616.496 51.0684 612.702 49.2704 610.243 46.7415C607.784 44.1894 606.566 40.9645 606.589 37.0668C606.566 33.7723 607.459 30.9186 609.269 28.5057C611.101 26.0696 613.642 24.1903 616.89 22.8679C620.161 21.5223 623.931 20.8494 628.2 20.8494C634.465 20.8494 639.395 22.1835 642.991 24.8516C646.61 27.5196 648.849 31.1274 649.707 35.6747ZM54.4992 179.044C49.279 179.044 44.7549 177.896 40.9268 175.599C37.0986 173.302 34.129 170.089 32.0177 165.959C29.9296 161.829 28.8856 157.003 28.8856 151.482C28.8856 145.96 29.9296 141.122 32.0177 136.969C34.129 132.817 37.0986 129.592 40.9268 127.295C44.7549 124.998 49.279 123.849 54.4992 123.849C59.7194 123.849 64.2435 124.998 68.0717 127.295C71.8998 129.592 74.8579 132.817 76.9459 136.969C79.0572 141.122 80.1129 145.96 80.1129 151.482C80.1129 157.003 79.0572 161.829 76.9459 165.959C74.8579 170.089 71.8998 173.302 68.0717 175.599C64.2435 177.896 59.7194 179.044 54.4992 179.044ZM54.5688 168.952C57.3993 168.952 59.7658 168.174 61.6682 166.62C63.5707 165.042 64.986 162.931 65.914 160.286C66.8652 157.641 67.3408 154.695 67.3408 151.447C67.3408 148.175 66.8652 145.217 65.914 142.572C64.986 139.904 63.5707 137.781 61.6682 136.204C59.7658 134.626 57.3993 133.837 54.5688 133.837C51.6687 133.837 49.2558 134.626 47.3302 136.204C45.4277 137.781 44.0009 139.904 43.0496 142.572C42.1216 145.217 41.6576 148.175 41.6576 151.447C41.6576 154.695 42.1216 157.641 43.0496 160.286C44.0009 162.931 45.4277 165.042 47.3302 166.62C49.2558 168.174 51.6687 168.952 54.5688 168.952ZM99.4835 146.679V178H86.8855V124.545H98.9267V133.629H99.5531C100.783 130.636 102.743 128.258 105.435 126.494C108.149 124.731 111.502 123.849 115.492 123.849C119.181 123.849 122.394 124.638 125.132 126.216C127.893 127.794 130.027 130.079 131.535 133.072C133.067 136.065 133.821 139.696 133.797 143.964V178H121.199V145.913C121.199 142.34 120.271 139.545 118.415 137.526C116.582 135.508 114.042 134.499 110.794 134.499C108.59 134.499 106.629 134.986 104.912 135.96C103.219 136.911 101.885 138.292 100.91 140.102C99.9591 141.911 99.4835 144.104 99.4835 146.679ZM170.903 198.045C169.186 198.045 167.597 197.906 166.135 197.628C164.697 197.373 163.548 197.071 162.69 196.723L165.613 186.909C167.446 187.443 169.082 187.698 170.52 187.675C171.959 187.652 173.223 187.199 174.314 186.317C175.427 185.459 176.367 184.021 177.133 182.002L178.211 179.114L158.827 124.545H172.191L184.51 164.915H185.067L197.422 124.545H210.82L189.417 184.473C188.42 187.304 187.097 189.728 185.45 191.746C183.803 193.788 181.784 195.343 179.395 196.41C177.028 197.5 174.198 198.045 170.903 198.045ZM237.116 179.044C231.896 179.044 227.372 177.896 223.544 175.599C219.716 173.302 216.746 170.089 214.635 165.959C212.546 161.829 211.502 157.003 211.502 151.482C211.502 145.96 212.546 141.122 214.635 136.969C216.746 132.817 219.716 129.592 223.544 127.295C227.372 124.998 231.896 123.849 237.116 123.849C242.336 123.849 246.86 124.998 250.689 127.295C254.517 129.592 257.475 132.817 259.563 136.969C261.674 141.122 262.73 145.96 262.73 151.482C262.73 157.003 261.674 161.829 259.563 165.959C257.475 170.089 254.517 173.302 250.689 175.599C246.86 177.896 242.336 179.044 237.116 179.044ZM237.186 168.952C240.016 168.952 242.383 168.174 244.285 166.62C246.188 165.042 247.603 162.931 248.531 160.286C249.482 157.641 249.958 154.695 249.958 151.447C249.958 148.175 249.482 145.217 248.531 142.572C247.603 139.904 246.188 137.781 244.285 136.204C242.383 134.626 240.016 133.837 237.186 133.837C234.286 133.837 231.873 134.626 229.947 136.204C228.045 137.781 226.618 139.904 225.667 142.572C224.738 145.217 224.274 148.175 224.274 151.447C224.274 154.695 224.738 157.641 225.667 160.286C226.618 162.931 228.045 165.042 229.947 166.62C231.873 168.174 234.286 168.952 237.186 168.952ZM303.573 155.518V124.545H316.171V178H303.955V168.499H303.399C302.192 171.492 300.209 173.94 297.448 175.842C294.71 177.745 291.334 178.696 287.321 178.696C283.817 178.696 280.72 177.919 278.029 176.364C275.361 174.787 273.272 172.501 271.764 169.509C270.256 166.492 269.502 162.85 269.502 158.581V124.545H282.1V156.632C282.1 160.019 283.028 162.711 284.884 164.706C286.741 166.701 289.177 167.699 292.193 167.699C294.049 167.699 295.847 167.246 297.587 166.342C299.327 165.437 300.754 164.091 301.867 162.305C303.004 160.495 303.573 158.233 303.573 155.518ZM325.205 178V124.545H337.421V133.455H337.977C338.952 130.369 340.622 127.991 342.989 126.32C345.378 124.627 348.105 123.78 351.167 123.78C351.863 123.78 352.64 123.815 353.499 123.884C354.38 123.931 355.111 124.012 355.691 124.128V135.717C355.158 135.531 354.311 135.369 353.151 135.229C352.014 135.067 350.912 134.986 349.845 134.986C347.548 134.986 345.483 135.485 343.65 136.482C341.84 137.457 340.414 138.814 339.369 140.554C338.325 142.294 337.803 144.301 337.803 146.575V178H325.205ZM380.529 198.045V124.545H392.919V133.385H393.65C394.299 132.086 395.216 130.705 396.399 129.244C397.582 127.759 399.183 126.494 401.201 125.45C403.22 124.383 405.795 123.849 408.927 123.849C413.057 123.849 416.781 124.905 420.098 127.016C423.439 129.104 426.084 132.202 428.033 136.308C430.005 140.392 430.991 145.403 430.991 151.342C430.991 157.212 430.028 162.2 428.103 166.307C426.177 170.413 423.555 173.545 420.238 175.703C416.92 177.861 413.161 178.94 408.962 178.94C405.9 178.94 403.359 178.429 401.341 177.408C399.322 176.388 397.698 175.158 396.468 173.719C395.262 172.258 394.322 170.877 393.65 169.578H393.128V198.045H380.529ZM392.884 151.273C392.884 154.73 393.371 157.757 394.346 160.356C395.343 162.954 396.77 164.984 398.626 166.446C400.505 167.884 402.779 168.604 405.447 168.604C408.231 168.604 410.563 167.861 412.442 166.376C414.321 164.868 415.737 162.815 416.688 160.217C417.662 157.595 418.15 154.614 418.15 151.273C418.15 147.955 417.674 145.009 416.723 142.433C415.771 139.858 414.356 137.839 412.477 136.378C410.598 134.916 408.254 134.185 405.447 134.185C402.756 134.185 400.471 134.893 398.591 136.308C396.712 137.723 395.285 139.707 394.311 142.259C393.36 144.811 392.884 147.816 392.884 151.273ZM461.176 179.044C455.956 179.044 451.432 177.896 447.604 175.599C443.776 173.302 440.806 170.089 438.695 165.959C436.607 161.829 435.563 157.003 435.563 151.482C435.563 145.96 436.607 141.122 438.695 136.969C440.806 132.817 443.776 129.592 447.604 127.295C451.432 124.998 455.956 123.849 461.176 123.849C466.396 123.849 470.921 124.998 474.749 127.295C478.577 129.592 481.535 132.817 483.623 136.969C485.734 141.122 486.79 145.96 486.79 151.482C486.79 157.003 485.734 161.829 483.623 165.959C481.535 170.089 478.577 173.302 474.749 175.599C470.921 177.896 466.396 179.044 461.176 179.044ZM461.246 168.952C464.076 168.952 466.443 168.174 468.345 166.62C470.248 165.042 471.663 162.931 472.591 160.286C473.542 157.641 474.018 154.695 474.018 151.447C474.018 148.175 473.542 145.217 472.591 142.572C471.663 139.904 470.248 137.781 468.345 136.204C466.443 134.626 464.076 133.837 461.246 133.837C458.346 133.837 455.933 134.626 454.007 136.204C452.105 137.781 450.678 139.904 449.727 142.572C448.799 145.217 448.335 148.175 448.335 151.447C448.335 154.695 448.799 157.641 449.727 160.286C450.678 162.931 452.105 165.042 454.007 166.62C455.933 168.174 458.346 168.952 461.246 168.952ZM535.811 138.675L524.327 139.928C524.002 138.768 523.433 137.677 522.621 136.656C521.833 135.635 520.765 134.812 519.42 134.185C518.074 133.559 516.427 133.246 514.478 133.246C511.856 133.246 509.652 133.814 507.866 134.951C506.102 136.088 505.232 137.561 505.256 139.371C505.232 140.925 505.801 142.19 506.961 143.164C508.144 144.138 510.093 144.939 512.808 145.565L521.925 147.514C526.983 148.605 530.742 150.333 533.201 152.7C535.683 155.066 536.936 158.163 536.96 161.991C536.936 165.356 535.95 168.325 534.001 170.901C532.076 173.453 529.396 175.448 525.962 176.886C522.529 178.325 518.585 179.044 514.13 179.044C507.587 179.044 502.321 177.675 498.33 174.938C494.34 172.177 491.962 168.337 491.196 163.418L503.481 162.235C504.038 164.648 505.221 166.469 507.031 167.699C508.84 168.929 511.195 169.543 514.095 169.543C517.088 169.543 519.489 168.929 521.299 167.699C523.132 166.469 524.048 164.95 524.048 163.14C524.048 161.609 523.457 160.344 522.273 159.347C521.113 158.349 519.304 157.583 516.844 157.05L507.727 155.136C502.599 154.068 498.806 152.27 496.347 149.741C493.887 147.189 492.669 143.964 492.692 140.067C492.669 136.772 493.562 133.919 495.372 131.506C497.205 129.07 499.745 127.19 502.994 125.868C506.265 124.522 510.035 123.849 514.304 123.849C520.568 123.849 525.498 125.183 529.094 127.852C532.714 130.52 534.953 134.127 535.811 138.675ZM570.12 124.545V134.29H539.391V124.545H570.12ZM546.977 111.739H559.575V161.922C559.575 163.616 559.831 164.915 560.341 165.82C560.875 166.701 561.571 167.304 562.429 167.629C563.288 167.954 564.239 168.116 565.283 168.116C566.072 168.116 566.791 168.058 567.441 167.942C568.113 167.826 568.624 167.722 568.972 167.629L571.095 177.478C570.422 177.71 569.459 177.965 568.206 178.244C566.976 178.522 565.468 178.684 563.682 178.731C560.527 178.824 557.685 178.348 555.156 177.304C552.627 176.237 550.62 174.589 549.135 172.362C547.673 170.135 546.954 167.351 546.977 164.01V111.739ZM618.219 138.675L606.735 139.928C606.41 138.768 605.842 137.677 605.03 136.656C604.241 135.635 603.173 134.812 601.828 134.185C600.482 133.559 598.835 133.246 596.886 133.246C594.264 133.246 592.06 133.814 590.274 134.951C588.511 136.088 587.641 137.561 587.664 139.371C587.641 140.925 588.209 142.19 589.369 143.164C590.552 144.138 592.501 144.939 595.216 145.565L604.333 147.514C609.391 148.605 613.15 150.333 615.609 152.7C618.092 155.066 619.344 158.163 619.368 161.991C619.344 165.356 618.358 168.325 616.409 170.901C614.484 173.453 611.804 175.448 608.37 176.886C604.937 178.325 600.993 179.044 596.538 179.044C589.995 179.044 584.729 177.675 580.738 174.938C576.748 172.177 574.37 168.337 573.604 163.418L585.889 162.235C586.446 164.648 587.629 166.469 589.439 167.699C591.248 168.929 593.603 169.543 596.503 169.543C599.496 169.543 601.897 168.929 603.707 167.699C605.54 166.469 606.456 164.95 606.456 163.14C606.456 161.609 605.865 160.344 604.682 159.347C603.521 158.349 601.712 157.583 599.253 157.05L590.135 155.136C585.007 154.068 581.214 152.27 578.755 149.741C576.295 147.189 575.077 143.964 575.101 140.067C575.077 136.772 575.971 133.919 577.78 131.506C579.613 129.07 582.154 127.19 585.402 125.868C588.673 124.522 592.443 123.849 596.712 123.849C602.976 123.849 607.906 125.183 611.503 127.852C615.122 130.52 617.361 134.127 618.219 138.675Z" fill="black"/>
</svg>
